<?xml version="1.0" encoding="iso-8859-1"?>
<!-- Generator: Adobe Illustrator 17.1.0, SVG Export Plug-In . SVG Version: 6.00 Build 0)  -->
<!DOCTYPE svg PUBLIC "-//W3C//DTD SVG 1.1//EN" "http://www.w3.org/Graphics/SVG/1.1/DTD/svg11.dtd">
<svg version="1.1" id="Capa_1" xmlns="http://www.w3.org/2000/svg" xmlns:xlink="http://www.w3.org/1999/xlink" x="0px" y="0px"
	 viewBox="0 0 96.505 96.505" style="enable-background:new 0 0 96.505 96.505;" xml:space="preserve">
<g>
	<path d="M8.241,63.047c0.712,1.977,2.607,3.304,4.714,3.304c0.575,0,1.142-0.099,1.685-0.295l27.913-10.059
		c0.327-0.118,0.634-0.267,0.919-0.443c0.25-0.024,0.497-0.068,0.734-0.153l21.172-7.63l-1.949,8.183
		c-0.338,1.419,0.256,3.286,1.353,4.249l7.067,6.206c0.658,0.578,1.594,0.909,2.569,0.909c0.669,0,1.301-0.157,1.827-0.455
		l0.383-0.216c0.72-0.407,1.207-1.079,1.334-1.841c0.128-0.763-0.113-1.556-0.661-2.175l-5.215-5.902
		c-0.5-0.565-0.754-1.737-0.535-2.459l3.389-11.15c0.187-0.613,0.162-1.2-0.055-1.702c-0.022-0.08-0.031-0.161-0.06-0.241
		l-2.165-6.007c-0.428-1.185-1.563-1.982-2.827-1.982c-0.346,0-0.687,0.06-1.012,0.177L40.009,43.751
		c-0.752,0.271-1.354,0.82-1.696,1.547c-0.198,0.422-0.282,0.872-0.275,1.324l-26.906,9.696c-2.594,0.935-3.944,3.805-3.009,6.399
		L8.241,63.047z"/>
	<path d="M95.897,30.193c-1.45-4.022-5.294-6.724-9.567-6.724c-1.174,0-2.333,0.204-3.447,0.604
		c-2.555,0.921-4.599,2.782-5.755,5.24c-1.156,2.458-1.285,5.219-0.364,7.774c1.45,4.022,5.294,6.724,9.567,6.724
		c1.173,0,2.333-0.204,3.446-0.604c2.556-0.921,4.6-2.782,5.755-5.24C96.688,35.509,96.818,32.748,95.897,30.193z"/>
	<path d="M92.5,69.036H2c-1.104,0-2,0.896-2,2s0.896,2,2,2h90.5c1.104,0,2-0.896,2-2S93.604,69.036,92.5,69.036z"/>
</g>
<g>
</g>
<g>
</g>
<g>
</g>
<g>
</g>
<g>
</g>
<g>
</g>
<g>
</g>
<g>
</g>
<g>
</g>
<g>
</g>
<g>
</g>
<g>
</g>
<g>
</g>
<g>
</g>
<g>
</g>
</svg>
