<svg id="Capa_1" enable-background="new 0 0 512 512" height="512" viewBox="0 0 512 512" width="512" xmlns="http://www.w3.org/2000/svg"><g><path d="m256 190.11c8.284 0 15-6.716 15-15v-11.829c0-8.284-6.716-15-15-15s-15 6.716-15 15v11.829c0 8.285 6.716 15 15 15z"/><path d="m464.01 279.37c15.4-20.15 24.55-45.31 24.55-72.56 0-36.58-16.39-70.67-44.96-93.52-10.32-8.25-16.24-20.56-16.24-33.77v-64.52c0-8.28-6.71-15-15-15h-312.72c-8.29 0-15 6.72-15 15v64.52c0 12.848-5.839 25.488-16.24 33.77-.01.01-.02.02-.04.03-28.55 22.85-44.92 56.92-44.92 93.49 0 27.25 9.15 52.41 24.55 72.56v68.819c-7.517 17.975-41.248 106.938 3.68 158.649 2.849 3.279 6.979 5.162 11.323 5.162h193.007 193.007c4.344 0 8.475-1.883 11.323-5.162 44.928-51.711 11.197-140.674 3.68-158.649zm-242.79 118.61c-35.37-49.22-110.8-59.22-143.23-61.22 0-52.056 0-7.936 0-44.68h356.02v44.68c-32.43 2-107.86 12-143.23 61.22-2.174 0-35.81 0-69.56 0zm-135.08-260.45c8.184-5.342 28.5-26.317 28.5-58.01v-49.52h282.72v49.52c0 22.38 10.03 43.22 27.5 57.2 38.87 31.066 44.645 87.088 14.61 125.36h-366.94c-11.96-15.24-19.09-34.44-19.09-55.27 0-26.99 11.9-52.17 32.7-69.28zm-13.119 229.03c26.801 1.37 100.709 9.211 127.179 54.04 2.7 4.57 7.61 7.38 12.92 7.38h27.88v54.02h-170.652c-23.63-34.819-5.661-93.08 2.673-115.44zm368.631 115.44h-170.652v-54.02h27.88c5.31 0 10.22-2.81 12.92-7.38 26.38-44.7 100.38-52.62 127.18-54.02h.006c8.338 22.376 26.289 80.612 2.666 115.42z"/></g></svg>